<svg width="27" height="32" viewBox="0 0 27 32" fill="none" xmlns="http://www.w3.org/2000/svg">
<path d="M17.3134 9.67319L17.8621 7.5498C18.1618 6.45206 18.1222 5.28936 17.7483 4.21463C16.4018 0.558344 11.896 0.465245 9.81414 1.74961C9.02438 2.25271 8.39535 2.97161 8.00153 3.82116C7.4602 5.04779 7.36159 6.42404 7.7221 7.71543L8.38489 10.1911C8.70598 11.4547 10.0111 15.7945 12.8284 15.7945C14.1749 15.7945 15.1796 14.6346 15.9357 13.2984C16.5459 12.0923 17.0052 10.8157 17.303 9.49719C17.303 9.36254 17.303 9.28983 17.303 9.28983" stroke="#99A0A8" stroke-width="1.5" stroke-linecap="round" stroke-linejoin="round"/>
<path d="M8.38574 9.39368C8.45825 8.91722 8.62403 8.24406 8.70689 7.93332C9.14192 6.03786 10.0741 5.76838 10.7784 5.94446C10.8009 6.13649 10.8638 6.32172 10.963 6.48764C11.0623 6.65356 11.1957 6.79655 11.3542 6.90716C11.5128 7.01777 11.693 7.09335 11.883 7.12918C12.073 7.16502 12.2683 7.16027 12.4563 7.11502C13.8442 6.87679 15.0458 5.04347 16.1852 6.07925C17.3245 7.11502 17.2209 9.52821 17.2209 9.52821C17.2161 9.54864 17.2161 9.56998 17.2209 9.59041C17.205 9.64098 17.205 9.69536 17.2209 9.74593" stroke="#99A0A8" stroke-width="1.5" stroke-linecap="round" stroke-linejoin="round"/>
<path d="M21.9952 19.5131C21.2656 18.7264 20.381 18.0993 19.3969 17.6714C18.4129 17.2436 17.351 17.0244 16.278 17.0274V17.0274C15.2526 17.7444 14.047 18.1605 12.7977 18.2288C11.5354 18.2131 10.3115 17.792 9.30698 17.0274V17.0274C7.23845 17.0274 5.2547 17.8489 3.79203 19.3116C2.32936 20.7743 1.50781 22.758 1.50781 24.8265V26.6599C1.50781 27.0967 1.68119 27.5155 1.99004 27.8244C2.2989 28.1332 2.71775 28.3069 3.15453 28.3069H15.8532" stroke="#99A0A8" stroke-width="1.5" stroke-linecap="round" stroke-linejoin="round"/>
<path d="M16.1944 17.0273L15.5107 14.4067" stroke="#99A0A8" stroke-width="1.5" stroke-linecap="round" stroke-linejoin="round"/>
<path d="M9.41016 17.0273L10.1041 14.4067" stroke="#99A0A8" stroke-width="1.5" stroke-linecap="round" stroke-linejoin="round"/>
<mask id="path-6-outside-1_455_13236" maskUnits="userSpaceOnUse" x="17.0615" y="21.1206" width="10" height="11" fill="black">
<rect fill="white" x="17.0615" y="21.1206" width="10" height="11"/>
<path d="M22.2565 25.0682C21.9628 25.0664 21.6754 25.1517 21.4303 25.3135C21.1852 25.4754 20.9937 25.7063 20.88 25.9772C20.7664 26.248 20.7357 26.5466 20.7919 26.8348C20.848 27.1231 20.9885 27.3882 21.1955 27.5965C21.4025 27.8048 21.6668 27.9469 21.9547 28.0049C22.2426 28.0629 22.5413 28.0341 22.8129 27.9222C23.0844 27.8102 23.3165 27.6202 23.4799 27.3761C23.6432 27.1321 23.7304 26.845 23.7304 26.5513C23.7304 26.1596 23.5754 25.7837 23.2993 25.5058C23.0232 25.2279 22.6482 25.0706 22.2565 25.0682ZM24.1909 23.8891C24.0544 23.9137 23.9137 23.8842 23.7985 23.8068C23.6833 23.7295 23.6028 23.6104 23.5739 23.4747L23.3895 22.4245C23.379 22.3737 23.3545 22.327 23.3186 22.2895C23.2828 22.2521 23.2371 22.2254 23.1868 22.2126C22.8838 22.1503 22.5751 22.1195 22.2657 22.1207C21.9563 22.1191 21.6476 22.1499 21.3446 22.2126C21.2939 22.2243 21.2477 22.2508 21.2117 22.2884C21.1757 22.3261 21.1514 22.3733 21.142 22.4245L20.9486 23.4747V23.5484C20.9026 23.6785 20.8074 23.7852 20.6832 23.8455C20.5591 23.9058 20.4162 23.9149 20.2854 23.8707L19.2813 23.5116C19.2319 23.4932 19.1781 23.4903 19.1271 23.5035C19.076 23.5166 19.0303 23.5451 18.996 23.5851C18.5799 24.0488 18.266 24.5949 18.0748 25.1878C18.0582 25.2368 18.0571 25.2899 18.0719 25.3394C18.0868 25.3889 18.1168 25.4325 18.1576 25.4642L18.9683 26.155C18.9683 26.155 19.0142 26.1551 19.0234 26.2104C19.069 26.262 19.104 26.3223 19.1259 26.3876C19.1479 26.4528 19.1565 26.5217 19.1513 26.5904C19.1462 26.6591 19.1272 26.7261 19.0958 26.7874C19.0644 26.8487 19.0211 26.9031 18.9683 26.9473L18.1576 27.6381C18.1168 27.6699 18.0868 27.7134 18.0719 27.7629C18.0571 27.8125 18.0582 27.8655 18.0748 27.9145C18.266 28.5075 18.5799 29.0535 18.996 29.5172C19.0303 29.5572 19.076 29.5857 19.1271 29.5989C19.1781 29.612 19.2319 29.6092 19.2813 29.5908L20.2854 29.2316H20.3684C20.4356 29.2183 20.5046 29.2186 20.5717 29.2323C20.6388 29.246 20.7027 29.2729 20.7592 29.3115C20.8158 29.3501 20.8641 29.3995 20.9014 29.457C20.9386 29.5144 20.9641 29.5787 20.9763 29.6461L21.1697 30.6963C21.1784 30.7468 21.2026 30.7934 21.2389 30.8296C21.2752 30.8659 21.3217 30.8902 21.3723 30.8989C21.6749 30.9648 21.9837 30.9986 22.2934 31.0001C22.6031 30.9982 22.9118 30.9643 23.2145 30.8989C23.2645 30.889 23.3104 30.8644 23.3465 30.8283C23.3826 30.7922 23.4072 30.7463 23.4171 30.6963L23.6015 29.6461V29.5631C23.6242 29.4988 23.6593 29.4397 23.705 29.3891C23.7507 29.3384 23.8059 29.2974 23.8676 29.2683C23.9292 29.2392 23.9962 29.2224 24.0643 29.2193C24.1325 29.2161 24.2006 29.2267 24.2647 29.2501L25.2686 29.6092C25.318 29.6276 25.372 29.6305 25.4231 29.6173C25.4741 29.6041 25.5198 29.5757 25.5542 29.5357C25.9735 29.0743 26.2878 28.5275 26.4753 27.9329C26.4916 27.8848 26.4933 27.8328 26.4802 27.7836C26.4671 27.7345 26.4397 27.6902 26.4015 27.6566L25.5818 26.9657L25.5265 26.9012C25.4812 26.8503 25.4465 26.791 25.4246 26.7265C25.4028 26.6619 25.3943 26.5936 25.3995 26.5256C25.4046 26.4577 25.4234 26.3914 25.4548 26.3309C25.4861 26.2704 25.5293 26.2169 25.5818 26.1735L26.4015 25.4826C26.4397 25.449 26.4671 25.4048 26.4802 25.3556C26.4933 25.3064 26.4916 25.2545 26.4753 25.2063C26.2878 24.6117 25.9735 24.0649 25.5542 23.6035C25.5198 23.5635 25.4741 23.5351 25.4231 23.5219C25.372 23.5087 25.318 23.5116 25.2686 23.53L24.2647 23.8891H24.1909Z"/>
</mask>
<path d="M22.2565 25.0682C21.9628 25.0664 21.6754 25.1517 21.4303 25.3135C21.1852 25.4754 20.9937 25.7063 20.88 25.9772C20.7664 26.248 20.7357 26.5466 20.7919 26.8348C20.848 27.1231 20.9885 27.3882 21.1955 27.5965C21.4025 27.8048 21.6668 27.9469 21.9547 28.0049C22.2426 28.0629 22.5413 28.0341 22.8129 27.9222C23.0844 27.8102 23.3165 27.6202 23.4799 27.3761C23.6432 27.1321 23.7304 26.845 23.7304 26.5513C23.7304 26.1596 23.5754 25.7837 23.2993 25.5058C23.0232 25.2279 22.6482 25.0706 22.2565 25.0682ZM24.1909 23.8891C24.0544 23.9137 23.9137 23.8842 23.7985 23.8068C23.6833 23.7295 23.6028 23.6104 23.5739 23.4747L23.3895 22.4245C23.379 22.3737 23.3545 22.327 23.3186 22.2895C23.2828 22.2521 23.2371 22.2254 23.1868 22.2126C22.8838 22.1503 22.5751 22.1195 22.2657 22.1207C21.9563 22.1191 21.6476 22.1499 21.3446 22.2126C21.2939 22.2243 21.2477 22.2508 21.2117 22.2884C21.1757 22.3261 21.1514 22.3733 21.142 22.4245L20.9486 23.4747V23.5484C20.9026 23.6785 20.8074 23.7852 20.6832 23.8455C20.5591 23.9058 20.4162 23.9149 20.2854 23.8707L19.2813 23.5116C19.2319 23.4932 19.1781 23.4903 19.1271 23.5035C19.076 23.5166 19.0303 23.5451 18.996 23.5851C18.5799 24.0488 18.266 24.5949 18.0748 25.1878C18.0582 25.2368 18.0571 25.2899 18.0719 25.3394C18.0868 25.3889 18.1168 25.4325 18.1576 25.4642L18.9683 26.155C18.9683 26.155 19.0142 26.1551 19.0234 26.2104C19.069 26.262 19.104 26.3223 19.1259 26.3876C19.1479 26.4528 19.1565 26.5217 19.1513 26.5904C19.1462 26.6591 19.1272 26.7261 19.0958 26.7874C19.0644 26.8487 19.0211 26.9031 18.9683 26.9473L18.1576 27.6381C18.1168 27.6699 18.0868 27.7134 18.0719 27.7629C18.0571 27.8125 18.0582 27.8655 18.0748 27.9145C18.266 28.5075 18.5799 29.0535 18.996 29.5172C19.0303 29.5572 19.076 29.5857 19.1271 29.5989C19.1781 29.612 19.2319 29.6092 19.2813 29.5908L20.2854 29.2316H20.3684C20.4356 29.2183 20.5046 29.2186 20.5717 29.2323C20.6388 29.246 20.7027 29.2729 20.7592 29.3115C20.8158 29.3501 20.8641 29.3995 20.9014 29.457C20.9386 29.5144 20.9641 29.5787 20.9763 29.6461L21.1697 30.6963C21.1784 30.7468 21.2026 30.7934 21.2389 30.8296C21.2752 30.8659 21.3217 30.8902 21.3723 30.8989C21.6749 30.9648 21.9837 30.9986 22.2934 31.0001C22.6031 30.9982 22.9118 30.9643 23.2145 30.8989C23.2645 30.889 23.3104 30.8644 23.3465 30.8283C23.3826 30.7922 23.4072 30.7463 23.4171 30.6963L23.6015 29.6461V29.5631C23.6242 29.4988 23.6593 29.4397 23.705 29.3891C23.7507 29.3384 23.8059 29.2974 23.8676 29.2683C23.9292 29.2392 23.9962 29.2224 24.0643 29.2193C24.1325 29.2161 24.2006 29.2267 24.2647 29.2501L25.2686 29.6092C25.318 29.6276 25.372 29.6305 25.4231 29.6173C25.4741 29.6041 25.5198 29.5757 25.5542 29.5357C25.9735 29.0743 26.2878 28.5275 26.4753 27.9329C26.4916 27.8848 26.4933 27.8328 26.4802 27.7836C26.4671 27.7345 26.4397 27.6902 26.4015 27.6566L25.5818 26.9657L25.5265 26.9012C25.4812 26.8503 25.4465 26.791 25.4246 26.7265C25.4028 26.6619 25.3943 26.5936 25.3995 26.5256C25.4046 26.4577 25.4234 26.3914 25.4548 26.3309C25.4861 26.2704 25.5293 26.2169 25.5818 26.1735L26.4015 25.4826C26.4397 25.449 26.4671 25.4048 26.4802 25.3556C26.4933 25.3064 26.4916 25.2545 26.4753 25.2063C26.2878 24.6117 25.9735 24.0649 25.5542 23.6035C25.5198 23.5635 25.4741 23.5351 25.4231 23.5219C25.372 23.5087 25.318 23.5116 25.2686 23.53L24.2647 23.8891H24.1909Z" fill="#99A0A8"/>
<path d="M19.2998 24.3128L19.3336 24.2187L19.2621 24.1929L19.2181 24.2551L19.2998 24.3128ZM19.9906 24.5615L19.9567 24.6556L19.9568 24.6556L19.9906 24.5615ZM21.6026 23.8061L21.6968 23.8405L21.699 23.8325L21.6026 23.8061ZM22.7171 22.885L22.8153 22.8661L22.8006 22.79L22.7232 22.7852L22.7171 22.885ZM22.8554 23.6035L22.9539 23.5861L22.9536 23.5846L22.8554 23.6035ZM24.3198 24.6168L24.3052 24.5178L24.3014 24.5186L24.3198 24.6168ZM24.5134 24.5615L24.4795 24.4672L24.4735 24.4698L24.5134 24.5615ZM25.2043 24.3128L25.2831 24.2513L25.2385 24.1942L25.1704 24.2187L25.2043 24.3128ZM25.674 25.1143L25.7388 25.1905L25.7946 25.1431L25.7662 25.0755L25.674 25.1143ZM25.1213 25.5841L25.1859 25.6603L25.186 25.6603L25.1213 25.5841ZM24.974 27.3617L25.051 27.298L25.0503 27.2972L24.974 27.3617ZM25.1213 27.509L25.186 27.4328L25.1851 27.432L25.1213 27.509ZM25.674 27.9788L25.7662 28.0176L25.7946 27.95L25.7388 27.9026L25.674 27.9788ZM25.2043 28.7803L25.1704 28.8744L25.2385 28.8989L25.2831 28.8418L25.2043 28.7803ZM24.5134 28.5316L24.5473 28.4375L24.5463 28.4371L24.5134 28.5316ZM22.9015 29.2962L22.8075 29.2619L22.8028 29.2748L22.8018 29.2884L22.9015 29.2962ZM22.9015 29.4988L22.9996 29.5179L23.0022 29.5046L23.0012 29.491L22.9015 29.4988ZM22.7632 30.2081L22.7723 30.3077L22.847 30.3008L22.8613 30.2272L22.7632 30.2081ZM22.3026 30.2081L22.3117 30.1085L22.3028 30.1077L22.2939 30.1085L22.3026 30.2081ZM21.8328 30.2081L21.7344 30.2259L21.7481 30.301L21.8241 30.3077L21.8328 30.2081ZM21.704 29.4988L21.8024 29.4809L21.8023 29.4808L21.704 29.4988ZM20.2301 28.4855L20.2117 28.3871L20.2069 28.3882L20.2301 28.4855ZM20.0367 28.5316L20.0134 28.4337L20.0028 28.4375L20.0367 28.5316ZM19.3459 28.7803L19.267 28.8418L19.3116 28.8989L19.3797 28.8744L19.3459 28.7803ZM18.8761 27.9788L18.812 27.9021L18.7553 27.9495L18.7839 28.0176L18.8761 27.9788ZM19.4381 27.509L19.5022 27.5858L19.5027 27.5853L19.4381 27.509ZM19.5854 25.7314L19.662 25.6665L19.6561 25.6606L19.5854 25.7314ZM19.4381 25.5841L19.5091 25.5131L19.5022 25.5073L19.4381 25.5841ZM18.8761 25.1143L18.7824 25.0793L18.7577 25.1456L18.812 25.191L18.8761 25.1143ZM19.2659 24.4069L19.9567 24.6556L20.0245 24.4674L19.3336 24.2187L19.2659 24.4069ZM19.9568 24.6556C20.2957 24.7773 20.6688 24.7599 20.9949 24.6071L20.91 24.426C20.6319 24.5563 20.3135 24.5712 20.0244 24.4674L19.9568 24.6556ZM20.9949 24.6071C21.3209 24.4543 21.5731 24.1786 21.6965 23.8404L21.5086 23.7719C21.4034 24.0604 21.1881 24.2957 20.91 24.426L20.9949 24.6071ZM21.699 23.8325L21.7543 23.6299L21.5614 23.5772L21.5061 23.7798L21.699 23.8325ZM22.2627 22.9848C22.4119 22.9757 22.5616 22.9757 22.7109 22.9848L22.7232 22.7852C22.5657 22.7755 22.4078 22.7755 22.2504 22.7852L22.2627 22.9848ZM22.6189 22.9039L22.7572 23.6224L22.9536 23.5846L22.8153 22.8661L22.6189 22.9039ZM22.7569 23.6209C22.788 23.797 22.8536 23.9652 22.9502 24.1158L23.1186 24.0079C23.0363 23.8796 22.9804 23.7362 22.9538 23.5861L22.7569 23.6209ZM22.9502 24.1158C23.0467 24.2664 23.1722 24.3963 23.3193 24.498L23.4331 24.3336C23.3078 24.2469 23.2008 24.1361 23.1186 24.0079L22.9502 24.1158ZM23.3193 24.498C23.4664 24.5998 23.6323 24.6713 23.8071 24.7086L23.8488 24.513C23.6997 24.4812 23.5584 24.4203 23.4331 24.3336L23.3193 24.498ZM23.8071 24.7086C23.982 24.7458 24.1624 24.7481 24.3382 24.7151L24.3014 24.5186C24.1516 24.5467 23.9979 24.5447 23.8488 24.513L23.8071 24.7086ZM24.3344 24.7158C24.4097 24.7047 24.4835 24.6836 24.5533 24.6532L24.4735 24.4698C24.4199 24.4932 24.3631 24.5094 24.3052 24.5179L24.3344 24.7158ZM24.5473 24.6556L25.2381 24.4069L25.1704 24.2187L24.4795 24.4674L24.5473 24.6556ZM25.1254 24.3743C25.3113 24.6125 25.4648 24.8745 25.5818 25.153L25.7662 25.0755C25.6423 24.7807 25.4799 24.5035 25.2831 24.2513L25.1254 24.3743ZM25.6093 25.0381L25.0565 25.5079L25.186 25.6603L25.7388 25.1905L25.6093 25.0381ZM25.0566 25.5078C24.7812 25.7412 24.6098 26.0744 24.5799 26.4342L24.7793 26.4507C24.8047 26.1438 24.951 25.8595 25.1859 25.6603L25.0566 25.5078ZM24.5799 26.4342C24.5501 26.794 24.6645 27.1508 24.8976 27.4263L25.0503 27.2972C24.8514 27.062 24.7538 26.7576 24.7793 26.4507L24.5799 26.4342ZM24.897 27.4255C24.9454 27.484 24.9991 27.5377 25.0575 27.5861L25.1851 27.432C25.1363 27.3916 25.0914 27.3468 25.051 27.298L24.897 27.4255ZM25.0565 27.5852L25.6093 28.055L25.7388 27.9026L25.186 27.4328L25.0565 27.5852ZM25.5818 27.9401C25.4648 28.2186 25.3113 28.4806 25.1254 28.7188L25.2831 28.8418C25.4799 28.5897 25.6423 28.3124 25.7662 28.0176L25.5818 27.9401ZM25.2381 28.6862L24.5473 28.4375L24.4795 28.6257L25.1704 28.8744L25.2381 28.6862ZM24.5463 28.4371C24.2062 28.3188 23.8332 28.3389 23.5078 28.4932L23.5936 28.6739C23.8714 28.5421 24.1901 28.5249 24.4805 28.626L24.5463 28.4371ZM23.5078 28.4932C23.1825 28.6475 22.931 28.9237 22.8075 29.2619L22.9954 29.3305C23.1009 29.0416 23.3157 28.8057 23.5936 28.6739L23.5078 28.4932ZM22.8018 29.2884C22.7961 29.361 22.7961 29.4339 22.8018 29.5065L23.0012 29.491C22.9963 29.4288 22.9963 29.3662 23.0012 29.3039L22.8018 29.2884ZM22.8033 29.4797L22.665 30.1889L22.8613 30.2272L22.9996 29.5179L22.8033 29.4797ZM22.754 30.1085C22.6069 30.122 22.4589 30.122 22.3117 30.1085L22.2935 30.3077C22.4528 30.3222 22.613 30.3222 22.7723 30.3077L22.754 30.1085ZM22.2939 30.1085C22.1434 30.1216 21.992 30.1216 21.8416 30.1085L21.8241 30.3077C21.9862 30.3219 22.1492 30.3219 22.3113 30.3077L22.2939 30.1085ZM21.9312 30.1902L21.8024 29.4809L21.6056 29.5167L21.7344 30.2259L21.9312 30.1902ZM21.8023 29.4808C21.7701 29.3044 21.7033 29.136 21.6058 28.9855L21.4379 29.0942C21.5211 29.2226 21.5781 29.3663 21.6056 29.5168L21.8023 29.4808ZM21.6058 28.9855C21.5082 28.8349 21.3819 28.7052 21.2342 28.6037L21.1209 28.7685C21.247 28.8552 21.3547 28.9658 21.4379 29.0942L21.6058 28.9855ZM21.2342 28.6037C21.0864 28.5021 20.9199 28.4306 20.7444 28.3935L20.703 28.5892C20.8527 28.6208 20.9948 28.6818 21.1209 28.7685L21.2342 28.6037ZM20.7444 28.3935C20.569 28.3564 20.388 28.3541 20.2117 28.3872L20.2485 28.5838C20.3989 28.5556 20.5533 28.5575 20.703 28.5892L20.7444 28.3935ZM20.2069 28.3882L20.0135 28.4343L20.0599 28.6289L20.2533 28.5828L20.2069 28.3882ZM20.0028 28.4375L19.312 28.6862L19.3797 28.8744L20.0706 28.6257L20.0028 28.4375ZM19.4247 28.7188C19.2388 28.4806 19.0853 28.2186 18.9683 27.9401L18.7839 28.0176C18.9078 28.3124 19.0703 28.5897 19.267 28.8418L19.4247 28.7188ZM18.9402 28.0555L19.5022 27.5858L19.3739 27.4323L18.812 27.9021L18.9402 28.0555ZM19.5027 27.5853C19.7781 27.3519 19.9496 27.0187 19.9794 26.6589L19.7801 26.6424C19.7546 26.9493 19.6084 27.2336 19.3734 27.4328L19.5027 27.5853ZM19.9794 26.6589C20.0092 26.2991 19.8949 25.9423 19.6617 25.6668L19.509 25.796C19.708 26.0311 19.8055 26.3355 19.7801 26.6424L19.9794 26.6589ZM19.6561 25.6606L19.5088 25.5133L19.3674 25.6548L19.5147 25.8021L19.6561 25.6606ZM19.5022 25.5073L18.9402 25.0376L18.812 25.191L19.3739 25.6608L19.5022 25.5073ZM18.9698 25.1492C19.0729 24.873 19.2112 24.6112 19.3814 24.3705L19.2181 24.2551C19.0379 24.5099 18.8915 24.787 18.7824 25.0793L18.9698 25.1492ZM22.2565 25.0682L22.2553 25.2682L22.2565 25.0682ZM23.7304 26.5513L23.5304 26.5513L23.7304 26.5513ZM24.1909 23.8891V23.6891H24.1731L24.1555 23.6923L24.1909 23.8891ZM23.5739 23.4747L23.3768 23.5093L23.3783 23.5163L23.5739 23.4747ZM23.3895 22.4245L23.5865 22.3899L23.5853 22.384L23.3895 22.4245ZM23.1868 22.2126L23.2361 22.0186L23.2272 22.0167L23.1868 22.2126ZM22.2657 22.1207L22.2647 22.3207L22.2665 22.3207L22.2657 22.1207ZM21.3446 22.2126L21.304 22.0167L21.2997 22.0178L21.3446 22.2126ZM21.142 22.4245L20.9453 22.3882L20.9453 22.3883L21.142 22.4245ZM20.9486 23.4747L20.7519 23.4385L20.7486 23.4564V23.4747H20.9486ZM20.9486 23.5484L21.1372 23.6151L21.1486 23.5827V23.5484H20.9486ZM20.2854 23.8707L20.2181 24.059L20.2214 24.0601L20.2854 23.8707ZM19.2813 23.5116L19.2116 23.699L19.214 23.6999L19.2813 23.5116ZM18.996 23.5851L19.1448 23.7187L19.1477 23.7154L18.996 23.5851ZM18.0748 25.1878L18.2642 25.2521L18.2652 25.2492L18.0748 25.1878ZM18.1576 25.4642L18.2874 25.3118L18.2803 25.3063L18.1576 25.4642ZM18.9683 26.155L18.8386 26.3073L18.8945 26.3549L18.9681 26.355L18.9683 26.155ZM19.0234 26.2104L18.8261 26.2432L18.8355 26.2998L18.8735 26.3428L19.0234 26.2104ZM18.9683 26.9473L18.8398 26.794L18.8386 26.7951L18.9683 26.9473ZM18.1576 27.6381L18.2804 27.7962L18.2873 27.7904L18.1576 27.6381ZM18.0748 27.9145L18.2652 27.8531L18.2642 27.8502L18.0748 27.9145ZM18.996 29.5172L19.1477 29.3869L19.1448 29.3837L18.996 29.5172ZM19.2813 29.5908L19.214 29.4024L19.2116 29.4033L19.2813 29.5908ZM20.2854 29.2316V29.0316H20.2507L20.2181 29.0433L20.2854 29.2316ZM20.3684 29.2316V29.4316H20.388L20.4073 29.4278L20.3684 29.2316ZM20.9763 29.6461L20.7794 29.6816L20.7796 29.6823L20.9763 29.6461ZM21.1697 30.6963L21.3667 30.6622L21.3664 30.6601L21.1697 30.6963ZM21.3723 30.8989L21.4149 30.7033L21.4064 30.7018L21.3723 30.8989ZM22.2934 31.0001L22.2924 31.2001L22.2947 31.2001L22.2934 31.0001ZM23.2145 30.8989L23.1755 30.7027L23.1723 30.7034L23.2145 30.8989ZM23.4171 30.6963L23.6133 30.7353L23.6141 30.7309L23.4171 30.6963ZM23.6015 29.6461L23.7985 29.6807L23.8015 29.6635V29.6461H23.6015ZM23.6015 29.5631L23.4129 29.4966L23.4015 29.5289V29.5631H23.6015ZM24.2647 29.2501L24.1962 29.438L24.1973 29.4384L24.2647 29.2501ZM25.2686 29.6092L25.3383 29.4217L25.3359 29.4209L25.2686 29.6092ZM25.5542 29.5357L25.4061 29.4011L25.4025 29.4054L25.5542 29.5357ZM26.4753 27.9329L26.2858 27.8687L26.2845 27.8728L26.4753 27.9329ZM26.4015 27.6566L26.5338 27.5065L26.5304 27.5036L26.4015 27.6566ZM25.5818 26.9657L25.43 27.0959L25.4405 27.1082L25.4529 27.1187L25.5818 26.9657ZM25.5265 26.9012L25.6784 26.771L25.6758 26.7681L25.5265 26.9012ZM25.5818 26.1735L25.7093 26.3276L25.7107 26.3264L25.5818 26.1735ZM26.4015 25.4826L26.5304 25.6356L26.5338 25.6327L26.4015 25.4826ZM26.4753 25.2063L26.2845 25.2664L26.2859 25.2705L26.4753 25.2063ZM25.5542 23.6035L25.4024 23.7339L25.4062 23.738L25.5542 23.6035ZM25.2686 23.53L25.3359 23.7183L25.3383 23.7175L25.2686 23.53ZM24.2647 23.8891V24.0891H24.2994L24.3321 24.0774L24.2647 23.8891ZM22.2578 24.8682C21.9245 24.8661 21.5982 24.963 21.3201 25.1466L21.5405 25.4804C21.7525 25.3404 22.0012 25.2666 22.2553 25.2682L22.2578 24.8682ZM21.3201 25.1466C21.042 25.3303 20.8246 25.5924 20.6956 25.8998L21.0644 26.0545C21.1628 25.8203 21.3285 25.6204 21.5405 25.4804L21.3201 25.1466ZM20.6956 25.8998C20.5666 26.2071 20.5318 26.546 20.5955 26.8731L20.9882 26.7966C20.9396 26.5472 20.9661 26.2888 21.0644 26.0545L20.6956 25.8998ZM20.5955 26.8731C20.6593 27.2002 20.8187 27.5011 21.0537 27.7375L21.3374 27.4555C21.1583 27.2753 21.0368 27.046 20.9882 26.7966L20.5955 26.8731ZM21.0537 27.7375C21.2886 27.9739 21.5885 28.1352 21.9152 28.201L21.9942 27.8088C21.7451 27.7587 21.5165 27.6357 21.3374 27.4555L21.0537 27.7375ZM21.9152 28.201C22.242 28.2668 22.5809 28.2341 22.8891 28.107L22.7366 27.7373C22.5017 27.8341 22.2433 27.859 21.9942 27.8088L21.9152 28.201ZM22.8891 28.107C23.1972 27.98 23.4607 27.7644 23.6461 27.4874L23.3137 27.2649C23.1723 27.476 22.9715 27.6404 22.7366 27.7373L22.8891 28.107ZM23.6461 27.4874C23.8315 27.2104 23.9304 26.8846 23.9304 26.5513L23.5304 26.5513C23.5304 26.8054 23.455 27.0538 23.3137 27.2649L23.6461 27.4874ZM23.9304 26.5513C23.9304 26.1067 23.7545 25.6802 23.4411 25.3648L23.1574 25.6468C23.3963 25.8872 23.5304 26.2124 23.5304 26.5513L23.9304 26.5513ZM23.4411 25.3648C23.1278 25.0495 22.7023 24.8709 22.2578 24.8682L22.2553 25.2682C22.5942 25.2703 22.9185 25.4064 23.1574 25.6468L23.4411 25.3648ZM24.1555 23.6923C24.0701 23.7077 23.9821 23.6892 23.91 23.6408L23.687 23.9728C23.8453 24.0792 24.0387 24.1197 24.2264 24.086L24.1555 23.6923ZM23.91 23.6408C23.8379 23.5924 23.7876 23.5179 23.7695 23.433L23.3783 23.5163C23.418 23.7029 23.5287 23.8665 23.687 23.9728L23.91 23.6408ZM23.7709 23.4401L23.5864 22.3899L23.1925 22.4591L23.3769 23.5093L23.7709 23.4401ZM23.5853 22.384C23.5672 22.2965 23.525 22.2159 23.4632 22.1513L23.1741 22.4278C23.1839 22.4381 23.1907 22.4509 23.1936 22.465L23.5853 22.384ZM23.4632 22.1513C23.4015 22.0868 23.3227 22.0408 23.236 22.0188L23.1377 22.4065C23.1514 22.41 23.1641 22.4174 23.1741 22.4278L23.4632 22.1513ZM23.2272 22.0167C22.9106 21.9516 22.5881 21.9195 22.265 21.9207L22.2665 22.3207C22.5621 22.3196 22.857 22.3489 23.1465 22.4085L23.2272 22.0167ZM22.2667 21.9207C21.9434 21.919 21.6207 21.9512 21.304 22.0168L21.3852 22.4085C21.6744 22.3485 21.9692 22.3192 22.2647 22.3207L22.2667 21.9207ZM21.2997 22.0178C21.2105 22.0383 21.1298 22.0847 21.0672 22.1502L21.3562 22.4267C21.3656 22.4169 21.3772 22.4104 21.3896 22.4075L21.2997 22.0178ZM21.0672 22.1502C21.0044 22.2158 20.9619 22.2983 20.9453 22.3882L21.3387 22.4607C21.341 22.4482 21.347 22.4364 21.3562 22.4267L21.0672 22.1502ZM20.9453 22.3883L20.7519 23.4385L21.1453 23.5109L21.3387 22.4607L20.9453 22.3883ZM20.7486 23.4747V23.5484H21.1486V23.4747H20.7486ZM20.76 23.4818C20.7316 23.5623 20.6727 23.6283 20.5958 23.6656L20.7707 24.0254C20.9421 23.9421 21.0736 23.7948 21.1372 23.6151L20.76 23.4818ZM20.5958 23.6656C20.519 23.703 20.4304 23.7086 20.3495 23.6812L20.2214 24.0601C20.4019 24.1212 20.5993 24.1087 20.7707 24.0254L20.5958 23.6656ZM20.3528 23.6824L19.3487 23.3232L19.214 23.6999L20.2181 24.059L20.3528 23.6824ZM19.351 23.3241C19.2636 23.2916 19.168 23.2863 19.0771 23.3098L19.177 23.6971C19.1882 23.6942 19.2003 23.6948 19.2116 23.699L19.351 23.3241ZM19.0771 23.3098C18.9864 23.3332 18.9052 23.3838 18.8442 23.4548L19.1477 23.7154C19.1554 23.7064 19.1656 23.7001 19.177 23.6971L19.0771 23.3098ZM18.8471 23.4515C18.4123 23.9361 18.0843 24.5068 17.8845 25.1264L18.2652 25.2492C18.4478 24.6829 18.7475 24.1615 19.1448 23.7187L18.8471 23.4515ZM17.8855 25.1235C17.8556 25.2113 17.8534 25.307 17.8804 25.3969L18.2635 25.2819C18.2607 25.2728 18.2608 25.2622 18.2642 25.2521L17.8855 25.1235ZM17.8804 25.3969C17.9072 25.4865 17.9615 25.5651 18.0349 25.6221L18.2803 25.3063C18.2721 25.2999 18.2663 25.2913 18.2635 25.2819L17.8804 25.3969ZM18.0279 25.6164L18.8386 26.3073L19.098 26.0028L18.2873 25.312L18.0279 25.6164ZM18.9683 26.155C18.9681 26.355 18.9679 26.355 18.9678 26.355C18.9678 26.355 18.9677 26.355 18.9676 26.355C18.9674 26.355 18.9673 26.355 18.9671 26.355C18.9668 26.355 18.9665 26.355 18.9662 26.355C18.9656 26.355 18.9649 26.355 18.9643 26.355C18.9631 26.355 18.9618 26.3549 18.9606 26.3549C18.9581 26.3548 18.9557 26.3546 18.9532 26.3544C18.9482 26.354 18.9429 26.3533 18.9373 26.3522C18.9265 26.3501 18.912 26.346 18.8962 26.3373C18.8797 26.3283 18.8625 26.3146 18.8486 26.2952C18.8345 26.2757 18.8284 26.2567 18.8261 26.2432L19.2207 26.1775C19.2057 26.0874 19.1532 26.0221 19.0886 25.9866C19.0602 25.9711 19.0337 25.9635 19.014 25.9596C19.0039 25.9577 18.9949 25.9565 18.9874 25.9559C18.9836 25.9556 18.9802 25.9553 18.977 25.9552C18.9754 25.9552 18.9739 25.9551 18.9725 25.9551C18.9718 25.9551 18.9711 25.9551 18.9705 25.955C18.9701 25.955 18.9698 25.955 18.9695 25.955C18.9693 25.955 18.9692 25.955 18.969 25.955C18.9689 25.955 18.9688 25.955 18.9688 25.955C18.9686 25.955 18.9685 25.955 18.9683 26.155ZM18.8735 26.3428C18.9016 26.3746 18.923 26.4116 18.9364 26.4513L19.3155 26.3238C19.285 26.233 19.2364 26.1494 19.1733 26.0779L18.8735 26.3428ZM18.9364 26.4513C18.9498 26.4912 18.9551 26.5333 18.9519 26.5754L19.3508 26.6054C19.3579 26.5101 19.346 26.4145 19.3155 26.3238L18.9364 26.4513ZM18.9519 26.5754C18.9488 26.6174 18.9372 26.6584 18.9179 26.6961L19.2737 26.8787C19.3173 26.7938 19.3436 26.7008 19.3508 26.6054L18.9519 26.5754ZM18.9179 26.6961C18.8985 26.7338 18.872 26.767 18.8398 26.794L19.0967 27.1006C19.1702 27.0391 19.2302 26.9636 19.2737 26.8787L18.9179 26.6961ZM18.8386 26.7951L18.0279 27.4859L18.2873 27.7904L19.098 27.0995L18.8386 26.7951ZM18.0349 27.4802C17.9615 27.5372 17.9072 27.6158 17.8804 27.7055L18.2635 27.8204C18.2663 27.811 18.2721 27.8025 18.2803 27.7961L18.0349 27.4802ZM17.8804 27.7055C17.8534 27.7954 17.8556 27.891 17.8855 27.9788L18.2642 27.8502C18.2608 27.8401 18.2607 27.8296 18.2635 27.8204L17.8804 27.7055ZM17.8845 27.9759C18.0843 28.5955 18.4123 29.1662 18.8471 29.6508L19.1448 29.3837C18.7475 28.9408 18.4478 28.4194 18.2652 27.8531L17.8845 27.9759ZM18.8442 29.6475C18.9052 29.7185 18.9864 29.7691 19.0771 29.7925L19.177 29.4052C19.1656 29.4023 19.1554 29.3959 19.1477 29.3869L18.8442 29.6475ZM19.0771 29.7925C19.168 29.816 19.2636 29.8108 19.351 29.7782L19.2116 29.4033C19.2003 29.4075 19.1882 29.4081 19.177 29.4052L19.0771 29.7925ZM19.3487 29.7791L20.3528 29.42L20.2181 29.0433L19.214 29.4025L19.3487 29.7791ZM20.2854 29.4316H20.3684V29.0316H20.2854V29.4316ZM20.4073 29.4278C20.4482 29.4197 20.4904 29.4198 20.5317 29.4283L20.6117 29.0364C20.5188 29.0174 20.4229 29.0169 20.3295 29.0355L20.4073 29.4278ZM20.5317 29.4283C20.573 29.4367 20.6121 29.4532 20.6466 29.4767L20.8719 29.1462C20.7932 29.0926 20.7046 29.0553 20.6117 29.0364L20.5317 29.4283ZM20.6466 29.4767C20.6812 29.5003 20.7107 29.5305 20.7336 29.5658L21.0692 29.3481C21.0175 29.2685 20.9505 29.1998 20.8719 29.1462L20.6466 29.4767ZM20.7336 29.5658C20.7564 29.601 20.772 29.6404 20.7794 29.6816L21.1731 29.6106C21.1562 29.517 21.1208 29.4278 21.0692 29.3481L20.7336 29.5658ZM20.7796 29.6823L20.973 30.7325L21.3664 30.6601L21.173 29.6099L20.7796 29.6823ZM20.9726 30.7304C20.9884 30.8219 21.0322 30.9058 21.0975 30.9711L21.3803 30.6882C21.373 30.6809 21.3684 30.6718 21.3667 30.6622L20.9726 30.7304ZM21.0975 30.9711C21.1628 31.0363 21.2467 31.0801 21.3382 31.096L21.4064 30.7018C21.3967 30.7002 21.3876 30.6955 21.3803 30.6882L21.0975 30.9711ZM21.3297 31.0943C21.6461 31.1632 21.9688 31.1986 22.2924 31.2001L22.2943 30.8001C21.9985 30.7987 21.7038 30.7664 21.4148 30.7035L21.3297 31.0943ZM22.2947 31.2001C22.6181 31.1981 22.9405 31.1627 23.2567 31.0944L23.1723 30.7034C22.8831 30.7659 22.5881 30.7982 22.2921 30.8001L22.2947 31.2001ZM23.2535 31.0951C23.3425 31.0774 23.424 31.0337 23.4879 30.9697L23.2051 30.6869C23.1969 30.6951 23.1866 30.7005 23.1755 30.7027L23.2535 31.0951ZM23.4879 30.9697C23.5519 30.9058 23.5956 30.8243 23.6133 30.7353L23.221 30.6573C23.2188 30.6684 23.2133 30.6787 23.2051 30.6869L23.4879 30.9697ZM23.6141 30.7309L23.7985 29.6807L23.4045 29.6115L23.2201 30.6617L23.6141 30.7309ZM23.8015 29.6461V29.5631H23.4015V29.6461H23.8015ZM23.7902 29.6296C23.8041 29.5901 23.8255 29.554 23.8534 29.5231L23.5565 29.2551C23.493 29.3254 23.4443 29.4075 23.4129 29.4966L23.7902 29.6296ZM23.8534 29.5231C23.8814 29.4921 23.9152 29.467 23.953 29.4491L23.7822 29.0874C23.6966 29.1279 23.6199 29.1848 23.5565 29.2551L23.8534 29.5231ZM23.953 29.4491C23.991 29.4312 24.032 29.421 24.0735 29.4191L24.0552 29.0195C23.9603 29.0238 23.8675 29.0471 23.7822 29.0874L23.953 29.4491ZM24.0735 29.4191C24.1149 29.4172 24.1567 29.4236 24.1962 29.438L24.3332 29.0622C24.2445 29.0298 24.15 29.0151 24.0552 29.0195L24.0735 29.4191ZM24.1973 29.4384L25.2012 29.7975L25.3359 29.4209L24.3321 29.0618L24.1973 29.4384ZM25.1989 29.7967C25.2864 29.8292 25.3821 29.8344 25.473 29.811L25.3731 29.4237C25.3619 29.4265 25.3496 29.426 25.3383 29.4218L25.1989 29.7967ZM25.473 29.811C25.5637 29.7876 25.6449 29.737 25.7059 29.666L25.4025 29.4054C25.3947 29.4144 25.3845 29.4207 25.3731 29.4237L25.473 29.811ZM25.7022 29.6702C26.1409 29.1874 26.4698 28.6153 26.666 27.9931L26.2845 27.8728C26.1057 28.4398 25.806 28.9612 25.4062 29.4012L25.7022 29.6702ZM26.6647 27.9972C26.6937 27.9116 26.6967 27.8193 26.6735 27.7321L26.287 27.8352C26.2899 27.8462 26.2895 27.8579 26.2859 27.8687L26.6647 27.9972ZM26.6735 27.7321C26.6502 27.6447 26.6015 27.5662 26.5338 27.5065L26.2693 27.8066C26.2779 27.8142 26.2841 27.8242 26.287 27.8352L26.6735 27.7321ZM26.5304 27.5036L25.7107 26.8128L25.4529 27.1187L26.2726 27.8095L26.5304 27.5036ZM25.7337 26.8356L25.6784 26.771L25.3747 27.0313L25.43 27.0959L25.7337 26.8356ZM25.6758 26.7681C25.6482 26.7371 25.6272 26.7012 25.6141 26.6624L25.2352 26.7906C25.2657 26.8808 25.3141 26.9636 25.3773 27.0343L25.6758 26.7681ZM25.6141 26.6624C25.6009 26.6235 25.5957 26.5821 25.5989 26.5408L25.2 26.5105C25.1928 26.6051 25.2047 26.7004 25.2352 26.7906L25.6141 26.6624ZM25.5989 26.5408C25.602 26.4996 25.6134 26.4595 25.6324 26.4229L25.2772 26.2389C25.2335 26.3233 25.2072 26.4158 25.2 26.5105L25.5989 26.5408ZM25.6324 26.4229C25.6513 26.3863 25.6774 26.3539 25.7093 26.3276L25.4544 26.0193C25.3812 26.0798 25.3209 26.1545 25.2772 26.2389L25.6324 26.4229ZM25.7107 26.3264L26.5304 25.6356L26.2726 25.3297L25.4529 26.0205L25.7107 26.3264ZM26.5338 25.6327C26.6015 25.573 26.6502 25.4945 26.6735 25.4071L26.287 25.304C26.2841 25.315 26.2779 25.325 26.2693 25.3326L26.5338 25.6327ZM26.6735 25.4071C26.6967 25.3199 26.6937 25.2276 26.6647 25.142L26.2859 25.2705C26.2895 25.2813 26.2899 25.293 26.287 25.304L26.6735 25.4071ZM26.666 25.1461C26.4698 24.5239 26.1409 23.9518 25.7022 23.469L25.4062 23.738C25.806 24.178 26.1057 24.6994 26.2845 25.2664L26.666 25.1461ZM25.7059 23.4732C25.6449 23.4022 25.5637 23.3516 25.473 23.3282L25.3731 23.7156C25.3845 23.7185 25.3947 23.7248 25.4025 23.7338L25.7059 23.4732ZM25.473 23.3282C25.3821 23.3048 25.2864 23.31 25.1989 23.3425L25.3383 23.7175C25.3496 23.7132 25.3619 23.7127 25.3731 23.7156L25.473 23.3282ZM25.2012 23.3417L24.1973 23.7008L24.3321 24.0774L25.3359 23.7183L25.2012 23.3417ZM24.2647 23.6891H24.1909V24.0891H24.2647V23.6891Z" fill="#99A0A8" mask="url(#path-6-outside-1_455_13236)"/>
</svg>
