<svg width="18" height="14" viewBox="0 0 18 14" fill="none" xmlns="http://www.w3.org/2000/svg">
<path fill-rule="evenodd" clip-rule="evenodd" d="M16.125 13.375H1.875C1.04662 13.375 0.375 12.7034 0.375 11.875V2.125C0.375 1.29663 1.04662 0.625 1.875 0.625H16.125C16.9534 0.625 17.625 1.29663 17.625 2.125V11.875C17.625 12.7034 16.9534 13.375 16.125 13.375ZM16.875 2.125C16.875 1.711 16.539 1.375 16.125 1.375H1.875C1.461 1.375 1.125 1.711 1.125 2.125V11.875C1.125 12.289 1.461 12.625 1.875 12.625H16.125C16.539 12.625 16.875 12.289 16.875 11.875V2.125ZM15.5002 11.0181L13.125 8.64288L11.7679 10L13.0181 11.2503C13.161 11.3931 13.161 11.6249 13.0181 11.7681C12.8749 11.911 12.6431 11.911 12.5002 11.7681L7.125 6.39288L2.49975 11.0181C2.35687 11.161 2.12512 11.161 1.98187 11.0181C1.839 10.8749 1.839 10.6431 1.98187 10.5003L6.82125 5.66088C6.83325 5.64288 6.84113 5.623 6.85687 5.60688C6.93075 5.533 7.02825 5.49925 7.125 5.5015C7.22175 5.49925 7.31925 5.533 7.39313 5.60688C7.40887 5.623 7.41637 5.64288 7.42875 5.66088L11.25 9.48213L12.8212 7.91088C12.8336 7.89325 12.8411 7.873 12.8569 7.85688C12.9307 7.78338 13.0282 7.74925 13.125 7.7515C13.2218 7.74925 13.3193 7.78338 13.3931 7.85688C13.4089 7.873 13.4164 7.89325 13.4288 7.91088L16.0181 10.5003C16.161 10.6431 16.161 10.8749 16.0181 11.0181C15.8749 11.161 15.6431 11.161 15.5002 11.0181ZM10.875 5.125C10.0466 5.125 9.375 4.45338 9.375 3.625C9.375 2.79663 10.0466 2.125 10.875 2.125C11.7034 2.125 12.375 2.79663 12.375 3.625C12.375 4.45338 11.7034 5.125 10.875 5.125ZM10.875 2.875C10.461 2.875 10.125 3.211 10.125 3.625C10.125 4.039 10.461 4.375 10.875 4.375C11.289 4.375 11.625 4.039 11.625 3.625C11.625 3.211 11.289 2.875 10.875 2.875Z" fill="#212121"/>
</svg>
