<svg width="14" height="18" viewBox="0 0 14 18" fill="none" xmlns="http://www.w3.org/2000/svg">
<path fill-rule="evenodd" clip-rule="evenodd" d="M11.875 17.625H2.125C1.29662 17.625 0.625 16.9534 0.625 16.125V1.875C0.625 1.04662 1.29662 0.375 2.125 0.375H9.23987C9.24062 0.375 9.24175 0.375 9.2425 0.375H9.25C9.37 0.375 9.47237 0.435375 9.541 0.523125L13.2269 4.209C13.315 4.27763 13.375 4.38 13.375 4.5V4.50787C13.375 4.50863 13.375 4.509 13.375 4.50975V16.125C13.375 16.9534 12.7034 17.625 11.875 17.625ZM9.625 1.64287V4.125H12.1071L9.625 1.64287ZM12.625 4.875H9.25C9.04263 4.875 8.875 4.707 8.875 4.5V1.125H2.125C1.711 1.125 1.375 1.461 1.375 1.875V16.125C1.375 16.539 1.711 16.875 2.125 16.875H11.875C12.289 16.875 12.625 16.539 12.625 16.125V4.875ZM10.375 14.625H3.625C3.41762 14.625 3.25 14.4574 3.25 14.25C3.25 14.043 3.41762 13.875 3.625 13.875H10.375C10.5824 13.875 10.75 14.043 10.75 14.25C10.75 14.4574 10.5824 14.625 10.375 14.625ZM10.375 11.625H3.625C3.41762 11.625 3.25 11.4574 3.25 11.25C3.25 11.043 3.41762 10.875 3.625 10.875H10.375C10.5824 10.875 10.75 11.043 10.75 11.25C10.75 11.4574 10.5824 11.625 10.375 11.625ZM10.375 8.625H3.625C3.41762 8.625 3.25 8.45737 3.25 8.25C3.25 8.043 3.41762 7.875 3.625 7.875H10.375C10.5824 7.875 10.75 8.043 10.75 8.25C10.75 8.45737 10.5824 8.625 10.375 8.625Z" fill="#212121"/>
</svg>
