<svg width="32" height="32" viewBox="0 0 32 32" fill="none" xmlns="http://www.w3.org/2000/svg">
<path d="M13.6879 9.28865C13.6879 6.72469 13.6879 4.16631 13.6879 1.60236C13.6879 1.1824 13.6021 1 13.1157 1C9.23665 1.0221 5.35749 1.0221 1.47839 1C1.02068 1 0.90625 1.16025 0.90625 1.55258C0.90625 6.65839 0.90625 11.7662 0.90625 16.8757C0.90625 17.3785 1.07227 17.5 1.57575 17.5C5.39001 17.5 9.21752 17.5 13.0585 17.5C13.5906 17.5 13.6993 17.3287 13.6936 16.8535C13.6765 14.3283 13.6879 11.8195 13.6879 9.28865Z" stroke="#99A0A8" stroke-width="1.5" stroke-linecap="round" stroke-linejoin="round"/>
<path d="M31.0437 22.7577C31.0437 20.187 31.0437 17.6108 31.0437 15.0346C31.0437 14.6043 30.9064 14.4829 30.4715 14.4829C26.6096 14.4829 22.7477 14.4829 18.8857 14.4829C18.388 14.4829 18.262 14.6429 18.2678 15.0953C18.2678 20.1815 18.2678 25.2659 18.2678 30.3484C18.2678 30.8394 18.4222 30.9829 18.9314 30.9829C22.7457 30.9829 26.5733 30.9829 30.4143 30.9829C30.9406 30.9829 31.0551 30.8118 31.0551 30.3374C31.0322 27.8108 31.0437 25.2843 31.0437 22.7577Z" stroke="#99A0A8" stroke-width="1.5" stroke-linecap="round" stroke-linejoin="round"/>
<path d="M24.6918 1.01172C22.7809 1.01172 20.8699 1.01172 18.9704 1.01172C18.4726 1.01172 18.3011 1.13766 18.3068 1.65831C18.3297 4.07655 18.3297 6.49284 18.3068 8.90727C18.3068 9.38786 18.4383 9.5424 18.9303 9.5424C22.7751 9.5424 26.618 9.5424 30.459 9.5424C30.9339 9.5424 31.0997 9.41649 31.094 8.92445C31.0711 6.49476 31.0711 4.06126 31.094 1.62395C31.094 1.11474 30.911 1.01172 30.4476 1.01745C28.4966 1.02317 26.5856 1.01172 24.6918 1.01172Z" stroke="#99A0A8" stroke-width="1.5" stroke-linecap="round" stroke-linejoin="round"/>
<path d="M7.27883 30.9656C9.21266 30.9656 11.1407 30.9656 13.0745 30.9656C13.5094 30.9656 13.7039 30.8741 13.6982 30.3935C13.6753 27.9638 13.6753 25.5284 13.6982 23.0873C13.6982 22.6353 13.538 22.5151 13.1261 22.5151C9.26604 22.5151 5.40219 22.5151 1.53453 22.5151C1.0711 22.5151 0.928036 22.6697 0.933758 23.1274C0.933758 25.5303 0.933758 27.9332 0.933758 30.3362C0.933758 30.8626 1.11108 30.9885 1.60884 30.9828C3.47974 30.9657 5.37933 30.9656 7.27883 30.9656Z" stroke="#99A0A8" stroke-width="1.5" stroke-linecap="round" stroke-linejoin="round"/>
</svg>
