<svg width="141" height="32" viewBox="0 0 141 32" fill="none" xmlns="http://www.w3.org/2000/svg">
<g clip-path="url(#clip0_455_13373)">
<path d="M0 21.5455C0 15.7625 4.86162 11.0918 10.896 11.0918C16.905 11.0918 21.7921 15.7625 21.7921 21.5455C21.7921 27.3285 16.9029 32 10.896 32C4.86162 32 0 27.3285 0 21.5455ZM10.896 15.0956C7.34792 15.0956 4.47068 17.9871 4.47068 21.5455C4.47068 25.104 7.34792 27.9962 10.896 27.9962C14.4442 27.9962 17.3221 25.1047 17.3221 21.5455C17.3221 17.9864 14.4442 15.0956 10.896 15.0956Z" fill="#008DFF"/>
<path d="M22.9102 28.5522L29.9795 20.1H23.106V16.5415H35.259V19.5442L28.1903 27.9971H35.2597V31.5562H22.9102V28.5522Z" fill="#008DFF"/>
<path d="M44.7016 31.9998C40.0917 31.9998 36.376 28.4407 36.376 24.05C36.376 19.6593 40.0917 16.1001 44.7016 16.1001C49.3115 16.1001 53.0272 19.6593 53.0272 24.05C53.0272 28.4407 49.3115 31.9998 44.7016 31.9998ZM44.7016 19.8773C42.4104 19.8773 40.5667 21.7403 40.5667 24.0479C40.5667 26.3554 42.4104 28.2184 44.7016 28.2184C46.9928 28.2184 48.8365 26.3554 48.8365 24.0479C48.8365 21.7403 46.9928 19.8773 44.7016 19.8773Z" fill="#008DFF"/>
<path d="M62.666 16.0962C67.3043 16.0962 70.489 19.6553 70.489 24.0461V31.5534H66.2983V24.0482C66.2983 21.7406 64.9848 19.8777 62.666 19.8777C60.3473 19.8777 59.0345 21.7406 59.0345 24.0482V31.5555H54.8438V24.0482C54.8437 19.6553 58.0285 16.0962 62.666 16.0962Z" fill="#008DFF"/>
<path d="M89.0681 24.0479C89.064 24.533 89.0167 25.0168 88.9267 25.4936H76.7461C77.3604 27.0787 78.8669 28.2184 80.6852 28.2184C81.3219 28.2178 81.95 28.0722 82.5214 27.7927C83.0928 27.5132 83.5923 27.1072 83.9816 26.6059H88.6199C87.5022 29.7479 84.3733 31.9998 80.6852 31.9998C76.0477 31.9998 72.3037 28.4407 72.3037 24.05C72.3037 19.6593 76.0505 16.1001 80.6852 16.1001C85.3199 16.1001 89.0681 19.655 89.0681 24.0479ZM84.6257 22.6021C84.0113 21.0171 82.4744 19.8773 80.6866 19.8773C78.8705 19.8773 77.364 21.0171 76.7475 22.6021H84.6257Z" fill="#008DFF"/>
<path d="M95.2143 11.5342V16.5391H99.405V20.0975H95.2143V24.0457C95.2135 24.5936 95.3214 25.1363 95.5318 25.6426C95.7421 26.1489 96.0508 26.609 96.44 26.9964C96.8293 27.3838 97.2916 27.691 97.8004 27.9003C98.3092 28.1096 98.8545 28.217 99.405 28.2163V31.9977H98.8494C94.2118 31.9977 91.0264 28.4386 91.0264 24.0478V11.5342H95.2143Z" fill="#008DFF"/>
<path d="M117.704 24.0479C117.7 24.533 117.653 25.0168 117.563 25.4936H105.383C105.998 27.0787 107.504 28.2184 109.323 28.2184C109.96 28.2178 110.588 28.0722 111.159 27.7927C111.73 27.5132 112.23 27.1072 112.619 26.6059H117.257C116.14 29.7479 113.01 31.9998 109.323 31.9998C104.685 31.9998 100.941 28.4407 100.941 24.05C100.941 19.6593 104.688 16.1001 109.323 16.1001C113.958 16.1001 117.704 19.655 117.704 24.0479ZM113.262 22.6021C112.648 21.0171 111.111 19.8773 109.323 19.8773C107.507 19.8773 106 21.0171 105.383 22.6021H113.262Z" fill="#008DFF"/>
<path d="M119.744 11.5342H123.935V31.5531H119.744V11.5342Z" fill="#008DFF"/>
<path d="M133.984 12.5465C132.261 12.5554 130.602 11.8975 129.357 10.7117C128.764 10.1443 128.288 9.46699 127.956 8.7179C127.619 7.94664 127.445 7.11457 127.445 6.27349C127.445 5.43241 127.619 4.60034 127.956 3.82908C128.288 3.07989 128.764 2.40256 129.357 1.83528C130.604 0.651886 132.261 -0.00830078 133.984 -0.00830078C135.707 -0.00830078 137.364 0.651886 138.611 1.83528C139.204 2.40278 139.68 3.08007 140.011 3.82908C140.348 4.60034 140.522 5.43241 140.522 6.27349C140.522 7.11457 140.348 7.94664 140.011 8.7179C139.679 9.46681 139.204 10.1441 138.611 10.7117C138.008 11.2854 137.302 11.741 136.529 12.0547C135.722 12.385 134.857 12.5521 133.984 12.5465ZM137.84 6.27314C137.842 5.76424 137.743 5.25995 137.549 4.78913C137.355 4.31832 137.07 3.89023 136.709 3.52938C136.357 3.17941 135.942 2.89912 135.485 2.70343C135.01 2.50516 134.5 2.40305 133.985 2.40305C133.47 2.40305 132.96 2.50516 132.484 2.70343C132.027 2.89894 131.612 3.17924 131.26 3.52938C130.899 3.89023 130.614 4.31832 130.42 4.78913C130.226 5.25995 130.127 5.76424 130.129 6.27314C130.125 6.78902 130.228 7.30019 130.43 7.77517C130.625 8.23308 130.907 8.64939 131.26 9.00142C131.613 9.35234 132.028 9.63523 132.484 9.8358C132.958 10.0391 133.469 10.1439 133.985 10.1439C134.501 10.1439 135.012 10.0391 135.485 9.8358C135.941 9.63504 136.356 9.35216 136.709 9.00142C137.062 8.64939 137.344 8.23308 137.539 7.77517C137.741 7.30014 137.843 6.78897 137.839 6.27314H137.84Z" fill="#75FB91"/>
</g>
<defs>
<clipPath id="clip0_455_13373">
<rect width="140.522" height="32" fill="white"/>
</clipPath>
</defs>
</svg>
