<svg width="32" height="32" viewBox="0 0 32 32" fill="none" xmlns="http://www.w3.org/2000/svg">
<path d="M24.233 18.17V28.3751C24.2316 29.111 23.9387 29.8164 23.4183 30.3367C22.898 30.8571 22.1926 31.15 21.4567 31.1514H3.88631C3.52708 31.1521 3.17123 31.0818 2.83922 30.9447C2.5072 30.8075 2.20553 30.6062 1.95152 30.3522C1.69751 30.0982 1.49619 29.7965 1.35904 29.4645C1.22189 29.1325 1.15165 28.7766 1.15235 28.4174V3.88533C1.15165 3.5261 1.22189 3.17026 1.35904 2.83824C1.49619 2.50622 1.69751 2.20456 1.95152 1.95054C2.20553 1.69653 2.5072 1.49521 2.83922 1.35806C3.17123 1.22091 3.52708 1.15068 3.88631 1.15137H21.4567C22.1926 1.15277 22.898 1.44567 23.4183 1.96601C23.9387 2.48635 24.2316 3.19173 24.233 3.9276V12.6784" stroke="#3D8BF8" stroke-width="1.5" stroke-miterlimit="10" stroke-linecap="round"/>
<path d="M19.4032 7.95996H5.9707" stroke="#3D8BF8" stroke-width="1.5" stroke-miterlimit="10" stroke-linecap="round"/>
<path d="M19.4032 13.4277H5.9707" stroke="#3D8BF8" stroke-width="1.5" stroke-miterlimit="10" stroke-linecap="round"/>
<path d="M12.6843 18.896H5.9707" stroke="#3D8BF8" stroke-width="1.5" stroke-miterlimit="10" stroke-linecap="round"/>
<path d="M9.90463 24.4912H6.01465" stroke="#3D8BF8" stroke-width="1.5" stroke-miterlimit="10" stroke-linecap="round"/>
<path d="M14.7676 25.0088C16.351 25.0668 17.6547 24.6445 18.5256 23.7737L30.6965 11.6027C31.0449 11.2597 30.7599 10.4099 30.0632 9.71316C29.3665 9.01647 28.5168 8.73148 28.1685 9.07983L16.0291 21.2456C15.5717 21.7518 15.2255 22.3481 15.0128 22.9963C14.8001 23.6444 14.7255 24.33 14.794 25.0088H14.7676Z" stroke="#3D8BF8" stroke-width="1.5" stroke-miterlimit="10" stroke-linecap="round"/>
</svg>
